<?xml version="1.0" encoding="UTF-8" standalone="no"?>
<!DOCTYPE svg PUBLIC "-//W3C//DTD SVG 1.1//EN" "http://www.w3.org/Graphics/SVG/1.1/DTD/svg11.dtd">
<svg width="100%" height="100%" viewBox="0 0 800 600" version="1.1" xmlns="http://www.w3.org/2000/svg" xmlns:xlink="http://www.w3.org/1999/xlink" xml:space="preserve" xmlns:serif="http://www.serif.com/" style="fill-rule:evenodd;clip-rule:evenodd;stroke-linecap:round;stroke-linejoin:round;stroke-miterlimit:1.5;">
    <g transform="matrix(0.780509,0,0,1.17598,134.436,-100.458)">
        <rect x="138.657" y="132.468" width="473.832" height="438.383" style="fill:rgb(235,235,79);"/>
    </g>
    <g transform="matrix(0.992612,0.121328,-0.204787,1.67541,192.507,-357.011)">
        <path d="M200,400C242.887,441.981 286.224,441.655 330,400C375.181,444.568 418.429,442.506 460,400" style="fill:none;stroke:black;stroke-width:10.09px;"/>
    </g>
    <g transform="matrix(1,0,0,1,21.1534,-35.5026)">
        <g transform="matrix(1,0,0,1,24.3662,50.8311)">
            <path d="M291.997,213.55C290.967,188.333 305.054,172.16 333.65,164.668C356.075,171.836 374.419,185.133 387.89,205.753C358.092,239.893 326.203,243.589 291.997,213.55Z" style="stroke:black;stroke-width:14px;"/>
        </g>
        <g transform="matrix(0.311054,0,0,0.340223,239.852,169.494)">
            <path d="M291.997,213.55C290.967,188.333 305.054,172.16 333.65,164.668C356.075,171.836 374.419,185.133 387.89,205.753C358.092,239.893 326.203,243.589 291.997,213.55Z" style="fill:white;"/>
        </g>
        <g transform="matrix(0.215197,0,0,0.244702,304.22,220.747)">
            <path d="M291.997,213.55C290.967,188.333 305.054,172.16 333.65,164.668C356.075,171.836 374.419,185.133 387.89,205.753C358.092,239.893 326.203,243.589 291.997,213.55Z" style="fill:white;"/>
        </g>
    </g>
    <g transform="matrix(1,0,0,1,22.0256,17.8349)">
        <g transform="matrix(1,0,0,1,161.824,21.7436)">
            <path d="M291.997,213.55C290.967,188.333 305.054,172.16 333.65,164.668C356.075,171.836 374.419,185.133 387.89,205.753C358.092,239.893 326.203,243.589 291.997,213.55Z" style="stroke:black;stroke-width:14px;"/>
        </g>
        <g transform="matrix(0.311054,0,0,0.340223,377.31,140.406)">
            <path d="M291.997,213.55C290.967,188.333 305.054,172.16 333.65,164.668C356.075,171.836 374.419,185.133 387.89,205.753C358.092,239.893 326.203,243.589 291.997,213.55Z" style="fill:white;"/>
        </g>
        <g transform="matrix(0.215197,0,0,0.244702,441.678,191.66)">
            <path d="M291.997,213.55C290.967,188.333 305.054,172.16 333.65,164.668C356.075,171.836 374.419,185.133 387.89,205.753C358.092,239.893 326.203,243.589 291.997,213.55Z" style="fill:white;"/>
        </g>
    </g>
</svg>
